<?xml version="1.0" encoding="UTF-8" standalone="no"?>
<!-- Created with Inkscape (http://www.inkscape.org/) -->

<svg
   xmlns:dc="http://purl.org/dc/elements/1.1/"
   xmlns:cc="http://creativecommons.org/ns#"
   xmlns:rdf="http://www.w3.org/1999/02/22-rdf-syntax-ns#"
   xmlns:svg="http://www.w3.org/2000/svg"
   xmlns="http://www.w3.org/2000/svg"
   xmlns:sodipodi="http://sodipodi.sourceforge.net/DTD/sodipodi-0.dtd"
   xmlns:inkscape="http://www.inkscape.org/namespaces/inkscape"
   width="101.6mm"
   height="128.5mm"
   viewBox="0 0 101.6 128.5"
   version="1.1"
   id="svg8"
   inkscape:version="0.92.3 (2405546, 2018-03-11)"
   sodipodi:docname="CVFold.svg">
  <defs
     id="defs2" />
  <sodipodi:namedview
     id="base"
     pagecolor="#ffffff"
     bordercolor="#666666"
     borderopacity="1.0"
     inkscape:pageopacity="0.0"
     inkscape:pageshadow="2"
     inkscape:zoom="1.4095179"
     inkscape:cx="17.721784"
     inkscape:cy="273.47505"
     inkscape:document-units="mm"
     inkscape:current-layer="layer2"
     showgrid="false"
     inkscape:window-width="1853"
     inkscape:window-height="1025"
     inkscape:window-x="67"
     inkscape:window-y="27"
     inkscape:window-maximized="1" />
  <metadata
     id="metadata5">
    <rdf:RDF>
      <cc:Work
         rdf:about="">
        <dc:format>image/svg+xml</dc:format>
        <dc:type
           rdf:resource="http://purl.org/dc/dcmitype/StillImage" />
        <dc:title />
      </cc:Work>
    </rdf:RDF>
  </metadata>
  <g
     inkscape:groupmode="layer"
     id="layer2"
     inkscape:label="bg"
     style="display:inline">
    <rect
       style="opacity:1;vector-effect:none;fill:#c2dac3;fill-opacity:1;stroke:none;stroke-width:0.40830171;stroke-linecap:round;stroke-linejoin:round;stroke-miterlimit:4;stroke-dasharray:none;stroke-dashoffset:0;stroke-opacity:1;marker:none"
       id="rect13"
       width="102.42943"
       height="128.6329"
       x="-0.12135588"
       y="-0.14279479" />
    <path
       transform="translate(0,-168.5)"
       style="display:inline;opacity:1;vector-effect:none;fill:#000000;fill-opacity:1;stroke:none;stroke-width:0.47624999;stroke-linecap:round;stroke-linejoin:round;stroke-miterlimit:4;stroke-dasharray:none;stroke-dashoffset:0;stroke-opacity:1;marker:none"
       d="M 7.0132797,258.58697 H 96.176453 c 1.767871,0 3.191103,1.42323 3.191103,3.1911 v 10.69958 c 0,1.76788 -1.423232,3.19111 -3.191103,3.19111 H 7.0132797 c -1.7678709,0 -3.1911028,-1.42323 -3.1911028,-3.19111 v -10.69958 c 0,-1.76787 1.4232319,-3.1911 3.1911028,-3.1911 z"
       id="rect885"
       inkscape:connector-curvature="0"
       sodipodi:nodetypes="sssssssss" />
  </g>
  <g
     inkscape:label="texts"
     inkscape:groupmode="layer"
     id="layer1"
     transform="translate(0,-168.5)"
     style="display:none">
    <g
       aria-label="CV FOLD"
       style="font-style:normal;font-variant:normal;font-weight:normal;font-stretch:normal;font-size:2.11666656px;line-height:6.61458302px;font-family:sans-serif;-inkscape-font-specification:'sans-serif, Normal';font-variant-ligatures:normal;font-variant-caps:normal;font-variant-numeric:normal;font-feature-settings:normal;text-align:start;letter-spacing:0px;word-spacing:0px;writing-mode:lr-tb;text-anchor:start;fill:#000000;fill-opacity:1;stroke:none;stroke-width:0.26458332"
       id="text845" />
    <text
       xml:space="preserve"
       style="font-style:normal;font-variant:normal;font-weight:bold;font-stretch:normal;font-size:6.3499999px;line-height:6.61458302px;font-family:sans-serif;-inkscape-font-specification:'sans-serif Bold';font-variant-ligatures:normal;font-variant-caps:normal;font-variant-numeric:normal;font-feature-settings:normal;text-align:start;letter-spacing:0px;word-spacing:0px;writing-mode:lr-tb;text-anchor:start;display:inline;fill:#000000;fill-opacity:1;stroke:none;stroke-width:0.26458332"
       x="34.348045"
       y="182.85016"
       id="text1855"><tspan
         sodipodi:role="line"
         id="tspan1853"
         x="34.348045"
         y="182.85016"
         style="font-style:normal;font-variant:normal;font-weight:bold;font-stretch:normal;font-size:6.3499999px;font-family:sans-serif;-inkscape-font-specification:'sans-serif Bold';stroke-width:0.26458332">CV FOLD</tspan></text>
    <text
       xml:space="preserve"
       style="font-style:normal;font-variant:normal;font-weight:normal;font-stretch:normal;font-size:2.11666656px;line-height:6.61458302px;font-family:sans-serif;-inkscape-font-specification:'sans-serif, Normal';font-variant-ligatures:normal;font-variant-caps:normal;font-variant-numeric:normal;font-feature-settings:normal;text-align:start;letter-spacing:0px;word-spacing:0px;writing-mode:lr-tb;text-anchor:start;display:inline;fill:#000000;fill-opacity:1;stroke:none;stroke-width:0.26458332"
       x="17.61591"
       y="199.57443"
       id="text1859"><tspan
         sodipodi:role="line"
         id="tspan1857"
         x="17.61591"
         y="199.57443"
         style="font-size:5.29166651px;stroke-width:0.26458332">IN</tspan></text>
    <text
       transform="translate(0,168.5)"
       xml:space="preserve"
       style="font-style:normal;font-variant:normal;font-weight:normal;font-stretch:normal;font-size:2.11666656px;line-height:6.61458349px;font-family:sans-serif;-inkscape-font-specification:'sans-serif, Normal';font-variant-ligatures:normal;font-variant-caps:normal;font-variant-numeric:normal;font-feature-settings:normal;text-align:start;letter-spacing:0px;word-spacing:0px;writing-mode:lr-tb;text-anchor:start;display:inline;fill:#000000;fill-opacity:1;stroke:none;stroke-width:0.26458332"
       x="4.6734929"
       y="63.797169"
       id="text1859-9"><tspan
         sodipodi:role="line"
         id="tspan1857-8"
         x="4.6734929"
         y="63.797169"
         style="font-size:5.29166651px;stroke-width:0.26458332">OCTAVE</tspan></text>
    <text
       xml:space="preserve"
       style="font-style:normal;font-variant:normal;font-weight:normal;font-stretch:normal;font-size:2.11666656px;line-height:6.61458349px;font-family:sans-serif;-inkscape-font-specification:'sans-serif, Normal';font-variant-ligatures:normal;font-variant-caps:normal;font-variant-numeric:normal;font-feature-settings:normal;text-align:start;letter-spacing:0px;word-spacing:0px;writing-mode:lr-tb;text-anchor:start;display:inline;fill:#f6f6f6;fill-opacity:1;stroke:none;stroke-width:0.26458332"
       x="11.326887"
       y="268.66327"
       id="text1859-9-1"><tspan
         sodipodi:role="line"
         id="tspan1857-8-0"
         x="11.326887"
         y="268.66327"
         style="font-size:5.29166651px;fill:#f6f6f6;fill-opacity:1;stroke-width:0.26458332">OUT</tspan></text>
  </g>
  <g
     style="display:inline"
     transform="translate(0,-168.5)"
     id="g1925"
     inkscape:groupmode="layer"
     inkscape:label="textpaths">
    <g
       id="g1907"
       style="font-style:normal;font-variant:normal;font-weight:normal;font-stretch:normal;font-size:2.11666656px;line-height:6.61458302px;font-family:sans-serif;-inkscape-font-specification:'sans-serif, Normal';font-variant-ligatures:normal;font-variant-caps:normal;font-variant-numeric:normal;font-feature-settings:normal;text-align:start;letter-spacing:0px;word-spacing:0px;writing-mode:lr-tb;text-anchor:start;fill:#000000;fill-opacity:1;stroke:none;stroke-width:0.26458332"
       aria-label="CV FOLD" />
    <g
       aria-label="IN"
       style="font-style:normal;font-variant:normal;font-weight:normal;font-stretch:normal;font-size:2.11666656px;line-height:6.61458302px;font-family:sans-serif;-inkscape-font-specification:'sans-serif, Normal';font-variant-ligatures:normal;font-variant-caps:normal;font-variant-numeric:normal;font-feature-settings:normal;text-align:start;letter-spacing:0px;word-spacing:0px;writing-mode:lr-tb;text-anchor:start;display:inline;fill:#000000;fill-opacity:1;stroke:none;stroke-width:0.26458332"
       id="text1915">
      <path
         d="m 18.135258,195.71679 h 0.521932 v 3.85764 h -0.521932 z"
         style="font-size:5.29166651px;stroke-width:0.26458332"
         id="path1940"
         inkscape:connector-curvature="0" />
      <path
         d="m 19.695886,195.71679 h 0.702799 l 1.71049,3.22719 v -3.22719 h 0.506429 v 3.85764 h -0.702799 l -1.71049,-3.22719 v 3.22719 h -0.506429 z"
         style="font-size:5.29166651px;stroke-width:0.26458332"
         id="path1942"
         inkscape:connector-curvature="0" />
    </g>
    <g
       aria-label="OCTAVE"
       transform="translate(0,168.5)"
       style="font-style:normal;font-variant:normal;font-weight:normal;font-stretch:normal;font-size:2.11666656px;line-height:6.61458349px;font-family:sans-serif;-inkscape-font-specification:'sans-serif, Normal';font-variant-ligatures:normal;font-variant-caps:normal;font-variant-numeric:normal;font-feature-settings:normal;text-align:start;letter-spacing:0px;word-spacing:0px;writing-mode:lr-tb;text-anchor:start;display:inline;fill:#000000;fill-opacity:1;stroke:none;stroke-width:0.26458332"
       id="text1919">
      <path
         d="m 6.7586369,60.293507 q -0.5684407,0 -0.9043375,0.423746 -0.333313,0.423747 -0.333313,1.154969 0,0.728637 0.333313,1.152384 0.3358968,0.423747 0.9043375,0.423747 0.5684407,0 0.8991699,-0.423747 0.333313,-0.423747 0.333313,-1.152384 0,-0.731222 -0.333313,-1.154969 -0.3307292,-0.423746 -0.8991699,-0.423746 z m 0,-0.423747 q 0.81132,0 1.2970784,0.545186 0.4857584,0.542603 0.4857584,1.457276 0,0.912089 -0.4857584,1.457275 -0.4857584,0.542603 -1.2970784,0.542603 -0.8139038,0 -1.3022461,-0.542603 -0.4857584,-0.542602 -0.4857584,-1.457275 0,-0.914673 0.4857584,-1.457276 0.4883423,-0.545186 1.3022461,-0.545186 z"
         style="font-size:5.29166651px;stroke-width:0.26458332"
         id="path1945"
         inkscape:connector-curvature="0" />
      <path
         d="m 12.246674,60.236663 v 0.550354 q -0.26355,-0.245463 -0.563273,-0.366903 -0.29714,-0.12144 -0.633037,-0.12144 -0.661458,0 -1.012858,0.40566 -0.3513995,0.403077 -0.3513995,1.167888 0,0.762227 0.3513995,1.167887 0.3514,0.403076 1.012858,0.403076 0.335897,0 0.633037,-0.121439 0.299723,-0.12144 0.563273,-0.366903 v 0.545186 q -0.273885,0.186035 -0.58136,0.279053 -0.304891,0.09302 -0.645956,0.09302 -0.875915,0 -1.3797603,-0.534852 -0.5038452,-0.537434 -0.5038452,-1.465026 0,-0.930176 0.5038452,-1.465027 0.5038453,-0.537435 1.3797603,-0.537435 0.346232,0 0.651123,0.09302 0.307475,0.09043 0.576193,0.273885 z"
         style="font-size:5.29166651px;stroke-width:0.26458332"
         id="path1947"
         inkscape:connector-curvature="0" />
      <path
         d="m 12.523142,59.939523 h 3.263367 v 0.43925 h -1.369425 v 3.418396 h -0.524516 v -3.418396 h -1.369426 z"
         style="font-size:5.29166651px;stroke-width:0.26458332"
         id="path1949"
         inkscape:connector-curvature="0" />
      <path
         d="m 17.168854,60.453704 -0.707968,1.919779 h 1.418518 z m -0.294556,-0.514181 h 0.591695 l 1.470194,3.857646 h -0.542602 l -0.3514,-0.989604 h -1.738912 l -0.351399,0.989604 H 15.40152 Z"
         style="font-size:5.29166651px;stroke-width:0.26458332"
         id="path1951"
         inkscape:connector-curvature="0" />
      <path
         d="m 20.150584,63.797169 -1.472778,-3.857646 h 0.545186 l 1.222148,3.247864 1.224731,-3.247864 h 0.542603 l -1.470195,3.857646 z"
         style="font-size:5.29166651px;stroke-width:0.26458332"
         id="path1953"
         inkscape:connector-curvature="0" />
      <path
         d="m 22.773163,59.939523 h 2.439128 v 0.43925 h -1.917196 v 1.142049 h 1.837097 v 0.43925 h -1.837097 v 1.397847 H 25.2588 v 0.43925 h -2.485637 z"
         style="font-size:5.29166651px;stroke-width:0.26458332"
         id="path1955"
         inkscape:connector-curvature="0" />
    </g>
    <g
       aria-label="OUT"
       style="font-style:normal;font-variant:normal;font-weight:normal;font-stretch:normal;font-size:2.11666656px;line-height:6.61458349px;font-family:sans-serif;-inkscape-font-specification:'sans-serif, Normal';font-variant-ligatures:normal;font-variant-caps:normal;font-variant-numeric:normal;font-feature-settings:normal;text-align:start;letter-spacing:0px;word-spacing:0px;writing-mode:lr-tb;text-anchor:start;display:inline;fill:#f6f6f6;fill-opacity:1;stroke:none;stroke-width:0.26458332"
       id="text1923">
      <path
         d="m 13.412031,265.15961 q -0.568441,0 -0.904337,0.42374 -0.333313,0.42375 -0.333313,1.15497 0,0.72864 0.333313,1.15239 0.335896,0.42374 0.904337,0.42374 0.568441,0 0.89917,-0.42374 0.333313,-0.42375 0.333313,-1.15239 0,-0.73122 -0.333313,-1.15497 -0.330729,-0.42374 -0.89917,-0.42374 z m 0,-0.42375 q 0.81132,0 1.297079,0.54519 0.485758,0.5426 0.485758,1.45727 0,0.91209 -0.485758,1.45728 -0.485759,0.5426 -1.297079,0.5426 -0.813904,0 -1.302246,-0.5426 -0.485758,-0.54261 -0.485758,-1.45728 0,-0.91467 0.485758,-1.45727 0.488342,-0.54519 1.302246,-0.54519 z"
         style="font-size:5.29166651px;fill:#f6f6f6;fill-opacity:1;stroke-width:0.26458332"
         id="path1958"
         inkscape:connector-curvature="0" />
      <path
         d="m 15.951927,264.80562 h 0.524516 v 2.34353 q 0,0.62012 0.224793,0.894 0.224792,0.2713 0.728637,0.2713 0.501262,0 0.726054,-0.2713 0.224793,-0.27388 0.224793,-0.894 v -2.34353 h 0.524516 v 2.40813 q 0,0.75447 -0.374655,1.13946 -0.37207,0.38499 -1.100708,0.38499 -0.731221,0 -1.105875,-0.38499 -0.372071,-0.38499 -0.372071,-1.13946 z"
         style="font-size:5.29166651px;fill:#f6f6f6;fill-opacity:1;stroke-width:0.26458332"
         id="path1960"
         inkscape:connector-curvature="0" />
      <path
         d="m 19.352237,264.80562 h 3.263366 v 0.43925 h -1.369425 v 3.4184 h -0.524516 v -3.4184 h -1.369425 z"
         style="font-size:5.29166651px;fill:#f6f6f6;fill-opacity:1;stroke-width:0.26458332"
         id="path1962"
         inkscape:connector-curvature="0" />
    </g>
    <g
       aria-label="CV FOLD"
       style="font-style:normal;font-variant:normal;font-weight:bold;font-stretch:normal;font-size:6.3499999px;line-height:6.61458302px;font-family:sans-serif;-inkscape-font-specification:'sans-serif Bold';font-variant-ligatures:normal;font-variant-caps:normal;font-variant-numeric:normal;font-feature-settings:normal;text-align:start;letter-spacing:0px;word-spacing:0px;writing-mode:lr-tb;text-anchor:start;display:inline;fill:#000000;fill-opacity:1;stroke:none;stroke-width:0.26458332"
       id="text2049">
      <path
         d="m 38.602049,182.59591 q -0.328662,0.17053 -0.685229,0.25735 -0.356568,0.0868 -0.744141,0.0868 -1.156518,0 -1.832446,-0.64493 -0.675928,-0.64802 -0.675928,-1.75493 0,-1.11001 0.675928,-1.75493 0.675928,-0.64802 1.832446,-0.64802 0.387573,0 0.744141,0.0868 0.356567,0.0868 0.685229,0.25735 v 0.95808 q -0.331762,-0.22634 -0.654223,-0.33176 -0.322461,-0.10542 -0.679029,-0.10542 -0.63872,0 -1.00459,0.40928 -0.365869,0.40928 -0.365869,1.12861 0,0.71624 0.365869,1.12551 0.36587,0.40928 1.00459,0.40928 0.356568,0 0.679029,-0.10542 0.322461,-0.10542 0.654223,-0.33176 z"
         style="font-style:normal;font-variant:normal;font-weight:bold;font-stretch:normal;font-size:6.3499999px;font-family:sans-serif;-inkscape-font-specification:'sans-serif Bold';stroke-width:0.26458332"
         id="path2053"
         inkscape:connector-curvature="0" />
      <path
         d="m 39.042332,178.22098 h 1.199927 l 1.227832,3.41685 1.224731,-3.41685 h 1.199927 l -1.714624,4.62918 h -1.423169 z"
         style="font-style:normal;font-variant:normal;font-weight:bold;font-stretch:normal;font-size:6.3499999px;font-family:sans-serif;-inkscape-font-specification:'sans-serif Bold';stroke-width:0.26458332"
         id="path2055"
         inkscape:connector-curvature="0" />
      <path
         d="m 46.713181,178.22098 h 3.221509 v 0.90227 h -2.027783 v 0.86197 h 1.90686 v 0.90227 h -1.90686 v 1.96267 h -1.193726 z"
         style="font-style:normal;font-variant:normal;font-weight:bold;font-stretch:normal;font-size:6.3499999px;font-family:sans-serif;-inkscape-font-specification:'sans-serif Bold';stroke-width:0.26458332"
         id="path2057"
         inkscape:connector-curvature="0" />
      <path
         d="m 53.168602,179.00233 q -0.545703,0 -0.84646,0.40308 -0.300757,0.40307 -0.300757,1.13481 0,0.72864 0.300757,1.13172 0.300757,0.40307 0.84646,0.40307 0.548804,0 0.84956,-0.40307 0.300757,-0.40308 0.300757,-1.13172 0,-0.73174 -0.300757,-1.13481 -0.300756,-0.40308 -0.84956,-0.40308 z m 0,-0.86506 q 1.116211,0 1.74873,0.63872 0.63252,0.63872 0.63252,1.76423 0,1.12241 -0.63252,1.76113 -0.632519,0.63873 -1.74873,0.63873 -1.11311,0 -1.74873,-0.63873 -0.63252,-0.63872 -0.63252,-1.76113 0,-1.12551 0.63252,-1.76423 0.63562,-0.63872 1.74873,-0.63872 z"
         style="font-style:normal;font-variant:normal;font-weight:bold;font-stretch:normal;font-size:6.3499999px;font-family:sans-serif;-inkscape-font-specification:'sans-serif Bold';stroke-width:0.26458332"
         id="path2059"
         inkscape:connector-curvature="0" />
      <path
         d="m 56.449022,178.22098 h 1.193725 v 3.72691 h 2.095997 v 0.90227 h -3.289722 z"
         style="font-style:normal;font-variant:normal;font-weight:bold;font-stretch:normal;font-size:6.3499999px;font-family:sans-serif;-inkscape-font-specification:'sans-serif Bold';stroke-width:0.26458332"
         id="path2061"
         inkscape:connector-curvature="0" />
      <path
         d="m 61.685911,179.12325 v 2.82464 h 0.427881 q 0.731738,0 1.116211,-0.36277 0.387573,-0.36277 0.387573,-1.0542 0,-0.68833 -0.384473,-1.048 -0.384473,-0.35967 -1.119311,-0.35967 z m -1.193726,-0.90227 h 1.258838 q 1.054199,0 1.568897,0.15193 0.517797,0.14883 0.886767,0.5085 0.325562,0.31316 0.483691,0.72244 0.15813,0.40927 0.15813,0.92707 0,0.524 -0.15813,0.93638 -0.158129,0.40927 -0.483691,0.72243 -0.37207,0.35967 -0.892969,0.5116 -0.520898,0.14883 -1.562695,0.14883 h -1.258838 z"
         style="font-style:normal;font-variant:normal;font-weight:bold;font-stretch:normal;font-size:6.3499999px;font-family:sans-serif;-inkscape-font-specification:'sans-serif Bold';stroke-width:0.26458332"
         id="path2063"
         inkscape:connector-curvature="0" />
    </g>
  </g>
  <g
     inkscape:groupmode="layer"
     id="layer3"
     inkscape:label="components"
     style="display:none">
    <ellipse
       cx="37.753803"
       cy="29.680805"
       rx="3.3362265"
       ry="2.8669467"
       style="fill:#00ff00;fill-opacity:1;stroke-width:0.30926985"
       inkscape:label="in1"
       id="ellipse963" />
    <ellipse
       cx="37.753803"
       cy="62.063175"
       rx="3.0546587"
       ry="2.1160989"
       style="fill:#ff0000;stroke-width:0.2542432"
       inkscape:label="oct1"
       id="ellipse965" />
    <ellipse
       cx="37.753803"
       cy="98.24958"
       rx="3.4300823"
       ry="3.5239384"
       style="fill:#0000ff;stroke-width:0.34766936"
       inkscape:label="out1"
       id="ellipse967" />
    <ellipse
       id="ellipse1993"
       inkscape:label="in2"
       style="fill:#00ff00;fill-opacity:1;stroke-width:0.30926985"
       ry="2.8669467"
       rx="3.3362265"
       cy="29.680805"
       cx="53.834457" />
    <ellipse
       id="ellipse1995"
       inkscape:label="oct2"
       style="fill:#ff0000;stroke-width:0.2542432"
       ry="2.1160989"
       rx="3.0546587"
       cy="62.063175"
       cx="53.834457" />
    <ellipse
       id="ellipse1997"
       inkscape:label="out2"
       style="fill:#0000ff;stroke-width:0.34766936"
       ry="3.5239384"
       rx="3.4300823"
       cy="98.24958"
       cx="53.834457" />
    <ellipse
       cx="69.915115"
       cy="29.680805"
       rx="3.3362265"
       ry="2.8669467"
       style="fill:#00ff00;fill-opacity:1;stroke-width:0.30926985"
       inkscape:label="in3"
       id="ellipse2001" />
    <ellipse
       cx="69.915115"
       cy="62.063175"
       rx="3.0546587"
       ry="2.1160989"
       style="fill:#ff0000;stroke-width:0.2542432"
       inkscape:label="oct3"
       id="ellipse2003" />
    <ellipse
       cx="69.915115"
       cy="98.24958"
       rx="3.4300823"
       ry="3.5239384"
       style="fill:#0000ff;stroke-width:0.34766936"
       inkscape:label="out3"
       id="ellipse2005" />
    <ellipse
       id="ellipse2009"
       inkscape:label="in4"
       style="fill:#00ff00;fill-opacity:1;stroke-width:0.30926985"
       ry="2.8669467"
       rx="3.3362265"
       cy="29.680805"
       cx="85.995773" />
    <ellipse
       id="ellipse2011"
       inkscape:label="oct4"
       style="fill:#ff0000;stroke-width:0.2542432"
       ry="2.1160989"
       rx="3.0546587"
       cy="62.063175"
       cx="85.995773" />
    <ellipse
       id="ellipse2013"
       inkscape:label="out4"
       style="fill:#0000ff;stroke-width:0.34766936"
       ry="3.5239384"
       rx="3.4300823"
       cy="98.24958"
       cx="85.995773" />
  </g>
</svg>
